<mxfile host="app.diagrams.net" modified="2022-12-03T02:04:50.729Z" agent="5.0 (Windows NT 10.0; Win64; x64) AppleWebKit/537.36 (KHTML, like Gecko) Chrome/107.0.0.0 Safari/537.36" etag="8VUw4b2ssWxmNwlBuMjv" version="20.5.3" type="github">
  <diagram id="-uNPK8GDD8U0g4mxpW3N" name="Page-1">
    <mxGraphModel dx="673" dy="433" grid="1" gridSize="10" guides="1" tooltips="1" connect="1" arrows="1" fold="1" page="0" pageScale="1" pageWidth="827" pageHeight="1169" math="0" shadow="0">
      <root>
        <mxCell id="0" />
        <mxCell id="1" parent="0" />
        <mxCell id="MRqg72SrQeY9hRM3BUW8-22" value="" style="group" vertex="1" connectable="0" parent="1">
          <mxGeometry x="87" y="291" width="520" height="272" as="geometry" />
        </mxCell>
        <mxCell id="MRqg72SrQeY9hRM3BUW8-1" value="" style="shape=image;verticalLabelPosition=bottom;labelBackgroundColor=default;verticalAlign=top;aspect=fixed;imageAspect=0;image=https://www.pm-partners.com.au/wp-content/uploads/2021/06/blog-scrum-process-opt.jpg;" vertex="1" parent="MRqg72SrQeY9hRM3BUW8-22">
          <mxGeometry width="520" height="272" as="geometry" />
        </mxCell>
        <mxCell id="MRqg72SrQeY9hRM3BUW8-2" value="" style="rounded=0;whiteSpace=wrap;html=1;fontSize=16;strokeColor=none;" vertex="1" parent="MRqg72SrQeY9hRM3BUW8-22">
          <mxGeometry x="8" width="185" height="143" as="geometry" />
        </mxCell>
        <mxCell id="MRqg72SrQeY9hRM3BUW8-3" value="" style="rounded=0;whiteSpace=wrap;html=1;fontSize=16;strokeColor=none;" vertex="1" parent="MRqg72SrQeY9hRM3BUW8-22">
          <mxGeometry x="30" y="3" width="185" height="143" as="geometry" />
        </mxCell>
        <mxCell id="MRqg72SrQeY9hRM3BUW8-4" value="" style="rounded=0;whiteSpace=wrap;html=1;fontSize=16;strokeColor=none;" vertex="1" parent="MRqg72SrQeY9hRM3BUW8-22">
          <mxGeometry x="133" y="9" width="110" height="90" as="geometry" />
        </mxCell>
        <mxCell id="MRqg72SrQeY9hRM3BUW8-5" value="" style="rounded=0;whiteSpace=wrap;html=1;fontSize=16;strokeColor=none;" vertex="1" parent="MRqg72SrQeY9hRM3BUW8-22">
          <mxGeometry x="363" y="70" width="20" height="10" as="geometry" />
        </mxCell>
        <mxCell id="MRqg72SrQeY9hRM3BUW8-6" value="" style="rounded=0;whiteSpace=wrap;html=1;fontSize=16;strokeColor=none;" vertex="1" parent="MRqg72SrQeY9hRM3BUW8-22">
          <mxGeometry x="413" y="39" width="80" height="30" as="geometry" />
        </mxCell>
        <mxCell id="MRqg72SrQeY9hRM3BUW8-7" value="" style="rounded=0;whiteSpace=wrap;html=1;fontSize=16;strokeColor=none;" vertex="1" parent="MRqg72SrQeY9hRM3BUW8-22">
          <mxGeometry x="30" y="226" width="203" height="43" as="geometry" />
        </mxCell>
        <mxCell id="MRqg72SrQeY9hRM3BUW8-8" value="" style="rounded=0;whiteSpace=wrap;html=1;fontSize=16;strokeColor=none;" vertex="1" parent="MRqg72SrQeY9hRM3BUW8-22">
          <mxGeometry x="413" y="226" width="90" height="33" as="geometry" />
        </mxCell>
        <mxCell id="MRqg72SrQeY9hRM3BUW8-9" value="" style="rounded=0;whiteSpace=wrap;html=1;fontSize=16;strokeColor=none;" vertex="1" parent="MRqg72SrQeY9hRM3BUW8-22">
          <mxGeometry x="273" y="119.5" width="70" height="33" as="geometry" />
        </mxCell>
        <mxCell id="MRqg72SrQeY9hRM3BUW8-10" value="" style="rounded=0;whiteSpace=wrap;html=1;fontSize=16;strokeColor=none;" vertex="1" parent="MRqg72SrQeY9hRM3BUW8-22">
          <mxGeometry x="413" y="129.5" width="90" height="33" as="geometry" />
        </mxCell>
        <mxCell id="MRqg72SrQeY9hRM3BUW8-13" value="Product Backlog" style="rounded=0;whiteSpace=wrap;html=1;fillColor=none;strokeColor=none;fontStyle=1" vertex="1" parent="1">
          <mxGeometry x="110" y="517" width="70" height="30" as="geometry" />
        </mxCell>
        <mxCell id="MRqg72SrQeY9hRM3BUW8-14" value="Sprint Planning" style="rounded=0;whiteSpace=wrap;html=1;fillColor=none;strokeColor=none;fontStyle=1" vertex="1" parent="1">
          <mxGeometry x="180" y="517" width="70" height="30" as="geometry" />
        </mxCell>
        <mxCell id="MRqg72SrQeY9hRM3BUW8-15" value="Sprint Backlog" style="rounded=0;whiteSpace=wrap;html=1;fillColor=none;strokeColor=none;fontStyle=1" vertex="1" parent="1">
          <mxGeometry x="250" y="517" width="70" height="30" as="geometry" />
        </mxCell>
        <mxCell id="MRqg72SrQeY9hRM3BUW8-16" value="2-Week&lt;br&gt;Sprint" style="rounded=0;whiteSpace=wrap;html=1;fillColor=none;strokeColor=none;fontStyle=1" vertex="1" parent="1">
          <mxGeometry x="358" y="409" width="70" height="30" as="geometry" />
        </mxCell>
        <mxCell id="MRqg72SrQeY9hRM3BUW8-18" value="&lt;font style=&quot;font-size: 10px;&quot;&gt;Twice a Week&lt;/font&gt;" style="rounded=0;whiteSpace=wrap;html=1;fillColor=none;strokeColor=none;fontStyle=1" vertex="1" parent="1">
          <mxGeometry x="419" y="320" width="82" height="30" as="geometry" />
        </mxCell>
        <mxCell id="MRqg72SrQeY9hRM3BUW8-19" value="Stand-up Meeting" style="rounded=0;whiteSpace=wrap;html=1;fillColor=none;strokeColor=none;fontStyle=1" vertex="1" parent="1">
          <mxGeometry x="499" y="340" width="82" height="30" as="geometry" />
        </mxCell>
        <mxCell id="MRqg72SrQeY9hRM3BUW8-24" value="" style="group" vertex="1" connectable="0" parent="1">
          <mxGeometry x="452" y="516" width="150" height="31" as="geometry" />
        </mxCell>
        <mxCell id="MRqg72SrQeY9hRM3BUW8-17" value="Sprint Review" style="rounded=0;whiteSpace=wrap;html=1;fillColor=none;strokeColor=none;fontStyle=1" vertex="1" parent="MRqg72SrQeY9hRM3BUW8-24">
          <mxGeometry width="70" height="31" as="geometry" />
        </mxCell>
        <mxCell id="MRqg72SrQeY9hRM3BUW8-21" value="Sprint Retrospective" style="rounded=0;whiteSpace=wrap;html=1;fillColor=none;strokeColor=none;fontStyle=1" vertex="1" parent="MRqg72SrQeY9hRM3BUW8-24">
          <mxGeometry x="80" width="70" height="31" as="geometry" />
        </mxCell>
        <mxCell id="MRqg72SrQeY9hRM3BUW8-23" value="&amp;amp;" style="rounded=0;whiteSpace=wrap;html=1;fillColor=none;strokeColor=none;fontStyle=1" vertex="1" parent="MRqg72SrQeY9hRM3BUW8-24">
          <mxGeometry x="51" width="30" height="31" as="geometry" />
        </mxCell>
      </root>
    </mxGraphModel>
  </diagram>
</mxfile>
